<svg id="ad304c36-97e1-4dee-a4d2-273546a43e0a" data-name="Layer 1" xmlns="http://www.w3.org/2000/svg" width="100" height="100">
  <defs>
    <style>
      .ae2566b5-231c-41a7-9512-f3388ab7597a {
        fill: #6c6e7f;
      }

      .a4c619ed-291f-466f-85ae-dc38e6c2df68 {
        fill: #585965;
      }

      .acf69d21-14bf-4fff-bcc5-8b2336a0498d {
        fill: none;
        stroke: #6c6e7f;
        stroke-miterlimit: 10;
        stroke-width: 0.1px;
      }
    </style>
  </defs>
  <title>astr</title>
  <path class="ae2566b5-231c-41a7-9512-f3388ab7597a" d="M26.2985,9.022,40.6834,7.09A11.6619,11.6619,0,0,1,50.98,10.9319l3.8048,4.3122a11.6614,11.6614,0,0,0,6.7083,3.7669l15.0356,2.6661a11.6616,11.6616,0,0,1,7.6781,5.03L94.7157,42.5286a11.6625,11.6625,0,0,1,1.9219,5.6793l1.2677,19.0863a11.6617,11.6617,0,0,1-2.48,7.9949L84.9467,88.5746a11.6616,11.6616,0,0,1-9.1563,4.44H61.7726a11.6617,11.6617,0,0,1-10.7849-7.2252L46.8294,75.68A11.6615,11.6615,0,0,0,35.708,68.46l-10.467.3023a11.6619,11.6619,0,0,1-9.63-4.612L4.4356,49.4079a11.6615,11.6615,0,0,1-2.0942-9.5585L5.1853,26.9661a11.6614,11.6614,0,0,1,4.1634-6.6409l11.2782-8.9A11.6623,11.6623,0,0,1,26.2985,9.022Z"/>
  <path class="a4c619ed-291f-466f-85ae-dc38e6c2df68" d="M25.6751,60.67l15.476,8.963a11.6337,11.6337,0,0,0-5.443-1.173l-10.467.302a11.66,11.66,0,0,1-9.63-4.612L4.4361,49.408a11.6617,11.6617,0,0,1-2.095-9.559l2.844-12.883a11.6588,11.6588,0,0,1,4.164-6.641l11.278-8.9a11.659,11.659,0,0,1,5.671-2.403L40.6831,7.09A11.66,11.66,0,0,1,50.98,10.932l1.962,2.224a4.6177,4.6177,0,0,0-4.8-1.365l-18.286,5.537a8.4736,8.4736,0,0,0-3.47,2.05l-9.244,9.027a8.481,8.481,0,0,0-2.408,4.492l-1.405,7.419a8.4817,8.4817,0,0,0,1.203,6.173l5.933,9.212A15.3494,15.3494,0,0,0,25.6751,60.67Z"/>
  <path class="a4c619ed-291f-466f-85ae-dc38e6c2df68" d="M95.4261,75.289,84.9471,88.575a11.6652,11.6652,0,0,1-9.157,4.439H61.7721a11.66,11.66,0,0,1-10.784-7.225L46.8291,75.68a11.65,11.65,0,0,0-4.234-5.211l12.258,7.936a10.207,10.207,0,0,0,6.773,1.565l7.712-.935a10.7077,10.7077,0,0,0,8.2-5.667l6.97-13.319a10.71,10.71,0,0,0,.801-7.933l-6.931-24.027a10.7086,10.7086,0,0,0-8.42-7.577l6.571,1.165a11.6662,11.6662,0,0,1,7.678,5.03l10.509,15.822a11.67,11.67,0,0,1,1.922,5.679l1.267,19.086A11.66,11.66,0,0,1,95.4261,75.289Z"/>
  <path class="acf69d21-14bf-4fff-bcc5-8b2336a0498d" d="M69.9581,20.512a10.7086,10.7086,0,0,1,8.42,7.577l6.931,24.027a10.71,10.71,0,0,1-.801,7.933l-6.97,13.319a10.7077,10.7077,0,0,1-8.2,5.667l-7.712.935a10.207,10.207,0,0,1-6.773-1.565l-12.258-7.936-.005-.003-1.439-.833L25.6751,60.67a15.3494,15.3494,0,0,1-5.21-4.969l-5.933-9.212a8.4817,8.4817,0,0,1-1.203-6.173l1.405-7.419a8.481,8.481,0,0,1,2.408-4.492l9.244-9.027a8.4736,8.4736,0,0,1,3.47-2.05l18.286-5.537a4.6177,4.6177,0,0,1,4.8,1.365"/>
</svg>
