<svg id="b9cfaeef-3a72-410c-a1ec-767e7f92acf5" data-name="Layer 1" xmlns="http://www.w3.org/2000/svg" viewBox="0 0 100 100">
  <defs>
    <style>
      .bcec6627-08d4-4b57-b3c9-4a8a7d6c7e80 {
        fill: #585965;
      }

      .a53aa75b-0049-4d3a-ba6c-e20e3cc8b442 {
        fill: #6c6e7f;
      }

      .a2a59b06-430f-4aa1-87ba-df4339aad464 {
        fill: #42424d;
      }
    </style>
  </defs>
  <title>astr</title>
  <path class="bcec6627-08d4-4b57-b3c9-4a8a7d6c7e80" d="M23.876,11.9881,46.845,3.8233a14.3961,14.3961,0,0,1,6.2057-.7648L72.4891,4.9363a14.3955,14.3955,0,0,1,11.3176,7.5544L94.3792,32.3141a14.3944,14.3944,0,0,1,1.6483,5.6348L97.5722,57.401a14.3956,14.3956,0,0,1-2.288,8.9963l-10.35,15.89a14.3954,14.3954,0,0,1-8.5511,6.1037L43.85,96.5732a14.3951,14.3951,0,0,1-12.939-3.0822L10.31,75.637a14.3952,14.3952,0,0,1-4.8468-9.02l-2.96-22.7361A14.3952,14.3952,0,0,1,5.1161,33.583l11.92-16.4706A14.3947,14.3947,0,0,1,23.876,11.9881Z"/>
  <path class="a53aa75b-0049-4d3a-ba6c-e20e3cc8b442" d="M14.0581,51.8827l1.8669-6.6162a15.9535,15.9535,0,0,1,4.1895-7.0135L39.6972,19.0266a15.4987,15.4987,0,0,1,11.3974-4.5373l12.6282.5417a12.5581,12.5581,0,0,1,9.1164,4.3416l8.1586,9.5868a12.9,12.9,0,0,1,2.8694,9.9651l-2.2478,18.823a15.5321,15.5321,0,0,1-3.3677,7.8637L67.9141,78.4326a15.8187,15.8187,0,0,1-11.2392,5.9288L37.44,85.4988a13.0127,13.0127,0,0,1-8.3092-2.2861l-6.7175-4.74a12.1989,12.1989,0,0,1-4.6541-6.5055L14.0607,59.64A13.8806,13.8806,0,0,1,14.0581,51.8827Z"/>
  <path class="a2a59b06-430f-4aa1-87ba-df4339aad464" d="M55.85,15.5918a9.59,9.59,0,0,1-18.1443,6.2176c-1.0926-3.1885,2.0838-7.1647,7.0946-8.8817S54.7573,12.4033,55.85,15.5918Z"/>
  <circle class="a2a59b06-430f-4aa1-87ba-df4339aad464" cx="55.2246" cy="69.2714" r="11.8286"/>
  <path class="a2a59b06-430f-4aa1-87ba-df4339aad464" d="M89.4143,35.0714l-3.0273-.7508-3.0237-.7636.1522-.0365q-1.6109,1.5509-3.2333,3.0892l-3.2406,3.0812-.1724.1639-.2192-.1183-5.4452-2.94.5791-.1564c-.7063,1.2441-1.4251,2.4809-2.137,3.7217l-2.1407,3.7195-.147.2555-.3061.0033-1.7382.0187-1.7383.0128L60.1,44.3945l-.14.0009-.1309-.0679-4.8921-2.54.8549-.3051-1.1313,2.704-1.1349,2.7024-.162.3856-.4209.0009-7.5.0163.558-.3177-4.9019,8.219-.243.4074L40.4,55.4818c-1.4987-.3908-2.9993-.7741-4.4965-1.1709l-4.4924-1.1867.477-.0841-4.52,3.0561-4.533,3.0376.1883-.25L21.428,63.495,19.8154,68.1l-.163.4652-.39-.2835-1.8234-1.3263-1.8187-1.3331.3449-.0115-2.4371,1.8953-1.22.9463-1.2225.9428-.083.064-.0867-.0442L8.187,68.0221,5.4631,66.617l2.7987,1.2494,2.7931,1.261-.17.02,1.1773-.9985,1.18-.9951,2.3625-1.9875.1613-.1357.1836.1243,1.8674,1.2639L19.68,67.6893l-.5527.1818,1.4731-4.6518,1.49-4.6461.0488-.152.1395-.0979L26.7462,55.19l4.48-3.1153.2152-.15.2618.0655,4.5076,1.1276c1.5028.3746,3.0022.7627,4.5035,1.1434l-.6988.2886,4.8695-8.2382.1883-.3184.37.0008,7.5.0162-.5829.3865,1.1466-2.6976,1.15-2.6959.2651-.6213.59.3161,4.8587,2.6032-.2707-.067,3.4766.0227,1.7383.0128,1.7382.0187-.453.2587,2.2205-3.6725c.7418-1.2232,1.4766-2.45,2.2241-3.67l.2224-.363.3567.2066,5.3547,3.1015-.3915.0456,3.3516-2.96q1.676-1.48,3.3589-2.9521l.07-.0614.0819.0249,2.9841.9063Z"/>
  <polygon class="a2a59b06-430f-4aa1-87ba-df4339aad464" points="47.282 19.671 55.433 25.234 55.738 25.443 55.561 25.744 53.168 29.796 53.103 29.469 55.336 31.331 55.46 31.434 55.379 31.563 52.994 35.358 52.998 35.307 53.728 37.364 52.888 35.35 52.878 35.325 52.892 35.299 55.07 31.38 55.113 31.612 52.783 29.874 52.613 29.747 52.718 29.546 54.888 25.371 55.017 25.88 46.578 20.764 47.282 19.671"/>
  <polygon class="a2a59b06-430f-4aa1-87ba-df4339aad464" points="41.071 58.729 39.39 64.423 39.359 64.298 41.197 66.06 41.264 66.125 41.245 66.224 40.431 70.357 40.4 70.165 42.911 74.229 42.458 74.076 54.979 68.669 55.47 69.873 42.734 74.752 42.432 74.868 42.281 74.6 39.943 70.435 39.889 70.339 39.912 70.243 40.898 66.148 40.946 66.311 39.184 64.473 39.13 64.417 39.153 64.348 41.071 58.729"/>
</svg>
