<svg id="a13d3d98-6e49-4ba2-85ca-0467a4ab683c" data-name="Layer 1" xmlns="http://www.w3.org/2000/svg" width="100" height="100">
  <title>astr</title>
  <path d="M98.1764,57.8287,95.419,64.1105a16.27,16.27,0,0,1-11.6619,9.4034L53.9745,79.5533a16.13,16.13,0,0,1-2.4176.3039L30.6211,80.9089a16.253,16.253,0,0,1-8.09-1.6968L10.3292,73.1112a16.266,16.266,0,0,1-8.9058-16.23L1.7555,53.68a16.2306,16.2306,0,0,0-.3-5.21l-.0179-.0834a16.2723,16.2723,0,0,1,1.0606-10.24l1.1581-2.556A16.269,16.269,0,0,1,9.4147,28.79l10.3846-6.9628a16.2644,16.2644,0,0,1,10.0485-2.7266l15.7711.9593a16.2772,16.2772,0,0,1,7.7066,2.4881l9.3906,5.9393q.531.3348,1.0837.6272a16.206,16.206,0,0,0,3.4449,1.3479l6.2317,1.6519,3.4423.9118,7.0179,1.86a16.2678,16.2678,0,0,1,10.114,7.9349l3.78,6.9282A9.1745,9.1745,0,0,1,98.1764,57.8287Z"/>
</svg>
