<svg id="e587c24d-fba9-4d08-84f7-6b907bdd35eb" data-name="Layer 1" xmlns="http://www.w3.org/2000/svg" width="100" height="100">
  <defs>
    <style>
      .ad526825-ac37-4110-968b-0ebdad901fca {
        fill: #585965;
      }

      .a78a7915-175f-492a-ac8e-3130e74db028 {
        fill: #6c6e7f;
      }
    </style>
  </defs>
  <title>astr</title>
  <path class="ad526825-ac37-4110-968b-0ebdad901fca" d="M23.876,11.9881,46.845,3.8233a14.3961,14.3961,0,0,1,6.2057-.7648L72.4891,4.9363a14.3955,14.3955,0,0,1,11.3176,7.5544L94.3792,32.3141a14.3944,14.3944,0,0,1,1.6483,5.6348L97.5722,57.401a14.3956,14.3956,0,0,1-2.288,8.9963l-10.35,15.89a14.3954,14.3954,0,0,1-8.5511,6.1037L43.85,96.5732a14.3951,14.3951,0,0,1-12.939-3.0822L10.31,75.637a14.3952,14.3952,0,0,1-4.8468-9.02l-2.96-22.7361A14.3952,14.3952,0,0,1,5.1161,33.583l11.92-16.4706A14.3947,14.3947,0,0,1,23.876,11.9881Z"/>
  <path class="a78a7915-175f-492a-ac8e-3130e74db028" d="M14.0581,51.8827l1.8669-6.6162a15.9535,15.9535,0,0,1,4.1895-7.0135L39.6972,19.0266a15.4987,15.4987,0,0,1,11.3974-4.5373l12.6282.5417a12.5581,12.5581,0,0,1,9.1164,4.3416l8.1586,9.5868a12.9,12.9,0,0,1,2.8694,9.9651l-2.2478,18.823a15.5321,15.5321,0,0,1-3.3677,7.8637L67.9141,78.4326a15.8187,15.8187,0,0,1-11.2392,5.9288L37.44,85.4988a13.0127,13.0127,0,0,1-8.3092-2.2861l-6.7175-4.74a12.1989,12.1989,0,0,1-4.6541-6.5055L14.0607,59.64A13.8806,13.8806,0,0,1,14.0581,51.8827Z"/>
</svg>
