<svg id="a5ae450b-2ec2-4db5-91f2-f2dd10a082cb" data-name="Layer 1" xmlns="http://www.w3.org/2000/svg" viewBox="0 0 100 100">
  <defs>
    <style>
      .b2618589-b5f6-490a-9957-b4742a4b9d43 {
        fill: #6c6e7f;
      }

      .a7d6b5e3-7000-4ee7-aa03-7b9df738b9d8 {
        fill: #585965;
      }

      .e2fb8e49-da77-431a-883a-e6fa2bda97bd {
        fill: none;
        stroke: #6c6e7f;
        stroke-miterlimit: 10;
        stroke-width: 0.1px;
      }

      .e88f2c9f-2393-4694-be52-e11777931872 {
        fill: #42424d;
      }
    </style>
  </defs>
  <title>astr</title>
  <path class="b2618589-b5f6-490a-9957-b4742a4b9d43" d="M26.2985,9.022,40.6834,7.09A11.6619,11.6619,0,0,1,50.98,10.9319l3.8048,4.3122a11.6614,11.6614,0,0,0,6.7083,3.7669l15.0356,2.6661a11.662,11.662,0,0,1,7.6781,5.03L94.7157,42.5286a11.6625,11.6625,0,0,1,1.9219,5.6794l1.2677,19.0862a11.6617,11.6617,0,0,1-2.48,7.9949L84.9467,88.5746a11.6616,11.6616,0,0,1-9.1563,4.44H61.7726a11.6617,11.6617,0,0,1-10.7849-7.2252L46.8294,75.68A11.6617,11.6617,0,0,0,35.708,68.46l-10.467.3023a11.6617,11.6617,0,0,1-9.63-4.612L4.4356,49.408A11.6617,11.6617,0,0,1,2.3414,39.85L5.1853,26.9661a11.6617,11.6617,0,0,1,4.1634-6.6409l11.2782-8.9A11.6615,11.6615,0,0,1,26.2985,9.022Z"/>
  <path class="a7d6b5e3-7000-4ee7-aa03-7b9df738b9d8" d="M25.6751,60.67l15.476,8.963a11.6337,11.6337,0,0,0-5.443-1.173l-10.467.302a11.66,11.66,0,0,1-9.63-4.612L4.4361,49.408a11.6617,11.6617,0,0,1-2.095-9.559l2.844-12.883a11.6588,11.6588,0,0,1,4.164-6.641l11.278-8.9a11.659,11.659,0,0,1,5.671-2.403L40.6831,7.09A11.66,11.66,0,0,1,50.98,10.932l1.962,2.224a4.6177,4.6177,0,0,0-4.8-1.365l-18.286,5.537a8.4736,8.4736,0,0,0-3.47,2.05l-9.244,9.027a8.481,8.481,0,0,0-2.408,4.492l-1.405,7.419a8.4817,8.4817,0,0,0,1.203,6.173l5.933,9.212A15.3494,15.3494,0,0,0,25.6751,60.67Z"/>
  <path class="a7d6b5e3-7000-4ee7-aa03-7b9df738b9d8" d="M95.4261,75.289,84.9471,88.575a11.6652,11.6652,0,0,1-9.157,4.439H61.7721a11.66,11.66,0,0,1-10.784-7.225L46.8291,75.68a11.65,11.65,0,0,0-4.234-5.211l12.258,7.936a10.207,10.207,0,0,0,6.773,1.565l7.712-.935a10.7077,10.7077,0,0,0,8.2-5.667l6.97-13.319a10.71,10.71,0,0,0,.801-7.933l-6.931-24.027a10.7086,10.7086,0,0,0-8.42-7.577l6.571,1.165a11.6662,11.6662,0,0,1,7.678,5.03l10.509,15.822a11.67,11.67,0,0,1,1.922,5.679l1.267,19.086A11.66,11.66,0,0,1,95.4261,75.289Z"/>
  <path class="e2fb8e49-da77-431a-883a-e6fa2bda97bd" d="M69.9581,20.512a10.7086,10.7086,0,0,1,8.42,7.577l6.931,24.027a10.71,10.71,0,0,1-.801,7.933l-6.97,13.319a10.7077,10.7077,0,0,1-8.2,5.667l-7.712.935a10.207,10.207,0,0,1-6.773-1.565l-12.258-7.936-.005-.003-1.439-.833L25.6751,60.67a15.3494,15.3494,0,0,1-5.21-4.969l-5.933-9.212a8.4817,8.4817,0,0,1-1.203-6.173l1.405-7.419a8.481,8.481,0,0,1,2.408-4.492l9.244-9.027a8.4736,8.4736,0,0,1,3.47-2.05l18.286-5.537a4.6177,4.6177,0,0,1,4.8,1.365"/>
  <circle class="e88f2c9f-2393-4694-be52-e11777931872" cx="34.155" cy="39.4731" r="10.5269"/>
  <path class="e88f2c9f-2393-4694-be52-e11777931872" d="M83.4683,45.714A6.3412,6.3412,0,0,1,79.99,33.5179c2.1432-.6112,4.659,1.6237,5.62,4.9918S85.6115,45.1028,83.4683,45.714Z"/>
  <ellipse class="e88f2c9f-2393-4694-be52-e11777931872" cx="85.7285" cy="75.4731" rx="9.9351" ry="6.2294" transform="translate(-22.4973 111.9796) rotate(-60)"/>
  <path class="e88f2c9f-2393-4694-be52-e11777931872" d="M34.1549,39.4731q1.1472-.8493,2.3111-1.6693,1.16-.8276,2.3312-1.6342l.5854-.4039c.1955-.1341.3884-.2726.5931-.39.204-.1193.4167-.2232.6232-.3379l.616-.3506,2.4608-1.4074L53.5192,27.65l.4369-.25.3513.36L65.4931,39.2342l-.4654-.1962,7.8285,0c.3262-.0005.6524-.0316.9785-.0032l.9786.0843L76.77,39.29l1.9572.1893c.6524.0668,1.3047.1338,1.9571.2092-.6524.0753-1.3047.1423-1.9571.2091l-1.9572.1893-1.9571.1709-.9786.0843c-.3261.0284-.6523-.0027-.9785-.0032l-7.8285,0h-.2742l-.1913-.1962L53.3765,28.668l.7881.1105-9.8435,5.6294L41.86,35.8153l-.6146.3531c-.2035.12-.401.25-.6072.3658s-.4226.2127-.6373.3132l-.645.3q-1.29.5994-2.5906,1.1806Q35.4675,38.913,34.1549,39.4731Z"/>
  <polygon class="e88f2c9f-2393-4694-be52-e11777931872" points="70.263 93.014 66.148 79.448 66.133 79.398 66.153 79.346 72.661 62.153 72.7 62.492 63.033 48.841 62.906 48.662 62.943 48.434 64.387 39.576 65.668 39.8 64.026 48.623 63.937 48.216 73.298 62.079 73.408 62.243 73.337 62.418 66.447 79.461 66.452 79.359 70.263 93.014"/>
</svg>
