<svg id="bd3b364a-769f-471b-8bba-7597f8399e65" data-name="Layer 1" xmlns="http://www.w3.org/2000/svg" viewBox="0 0 100 100">
  <title>astr</title>
  <path d="M23.876,11.9881,46.845,3.8233a14.3961,14.3961,0,0,1,6.2057-.7648L72.4891,4.9363a14.3955,14.3955,0,0,1,11.3176,7.5544L94.3792,32.3141a14.3944,14.3944,0,0,1,1.6483,5.6348L97.5722,57.401a14.3956,14.3956,0,0,1-2.288,8.9963l-10.35,15.89a14.3954,14.3954,0,0,1-8.5511,6.1037L43.85,96.5732a14.3951,14.3951,0,0,1-12.939-3.0822L10.31,75.637a14.3952,14.3952,0,0,1-4.8468-9.02l-2.96-22.7361A14.3952,14.3952,0,0,1,5.1161,33.583l11.92-16.4706A14.3947,14.3947,0,0,1,23.876,11.9881Z"/>
</svg>
