<svg id="f89eac8a-6dde-4771-8feb-d3497bb16c4e" data-name="Layer 1" xmlns="http://www.w3.org/2000/svg" viewBox="0 0 100 100">
  <defs>
    <style>
      .a358377f-426c-43fd-b71f-4b9d90c6d754 {
        fill: #6c6e7f;
      }

      .fccd3806-786e-4e39-a3d6-c863fa78a09f {
        fill: #585965;
      }
    </style>
  </defs>
  <title>astr</title>
  <path class="a358377f-426c-43fd-b71f-4b9d90c6d754" d="M98.1764,57.8287,95.419,64.1105a16.27,16.27,0,0,1-11.6619,9.4034L53.9745,79.5533a16.13,16.13,0,0,1-2.4176.3039L30.6211,80.9089a16.253,16.253,0,0,1-8.09-1.6968L10.3292,73.1112a16.266,16.266,0,0,1-8.9058-16.23L1.7555,53.68a16.2306,16.2306,0,0,0-.3-5.21l-.0179-.0834a16.2723,16.2723,0,0,1,1.0606-10.24l1.1581-2.556A16.269,16.269,0,0,1,9.4147,28.79l10.3846-6.9628a16.2644,16.2644,0,0,1,10.0485-2.7266l15.7711.9593a16.2772,16.2772,0,0,1,7.7066,2.4881l9.3906,5.9393q.531.3348,1.0837.6272a16.206,16.206,0,0,0,3.4449,1.3479l6.2317,1.6519,3.4423.9118,7.0179,1.86a16.2678,16.2678,0,0,1,10.114,7.9349l3.78,6.9282A9.1745,9.1745,0,0,1,98.1764,57.8287Z"/>
  <path class="fccd3806-786e-4e39-a3d6-c863fa78a09f" d="M73.4764,32.1143,63.4446,29.97,44.153,25.8466a25.646,25.646,0,0,0-16.0071,1.7455l-8.52,3.8873A25.651,25.651,0,0,0,6.733,44.6214l-5.31,12.26L1.7555,53.68a16.2306,16.2306,0,0,0-.3-5.21l-.0179-.0834a16.2723,16.2723,0,0,1,1.0606-10.24l1.1581-2.556A16.269,16.269,0,0,1,9.4147,28.79l10.3846-6.9628a16.2644,16.2644,0,0,1,10.0485-2.7266l15.7711.9593a16.2772,16.2772,0,0,1,7.7066,2.4881l9.3906,5.9393q.531.3348,1.0837.6272a16.206,16.206,0,0,0,3.4449,1.3479Z"/>
  <path class="fccd3806-786e-4e39-a3d6-c863fa78a09f" d="M98.1764,57.8287,95.419,64.1105a16.27,16.27,0,0,1-11.6619,9.4034L53.9745,79.5533a16.13,16.13,0,0,1-2.4176.3039L30.6211,80.9089a16.253,16.253,0,0,1-8.09-1.6968L10.3292,73.1112l34.6112.2565a20.576,20.576,0,0,0,4.35-.4335l30.0161-6.2664a20.5484,20.5484,0,0,0,12.743-8.49l4.1028-5.983a4.8336,4.8336,0,0,0,.2565-5.0492L97.83,49.7489A9.1745,9.1745,0,0,1,98.1764,57.8287Z"/>
</svg>
