<svg id="a109c1e1-1170-4442-bcc0-1047707e803a" data-name="Layer 1" xmlns="http://www.w3.org/2000/svg" width="100" height="100">
  <title>astr</title>
  <path d="M26.2994,9.022,40.6844,7.09a11.6618,11.6618,0,0,1,10.2969,3.8422l3.8048,4.3122a11.6617,11.6617,0,0,0,6.7083,3.7669L76.53,21.6771a11.6616,11.6616,0,0,1,7.6781,5.03L94.7166,42.5286a11.6614,11.6614,0,0,1,1.9219,5.6793l1.2677,19.0863a11.6617,11.6617,0,0,1-2.48,7.9949L84.9476,88.5746a11.6616,11.6616,0,0,1-9.1563,4.44H61.7735a11.6618,11.6618,0,0,1-10.7849-7.2252L46.83,75.68a11.6617,11.6617,0,0,0-11.1215-7.22l-10.467.3023a11.6619,11.6619,0,0,1-9.63-4.612L4.4366,49.4079a11.6612,11.6612,0,0,1-2.0943-9.5585L5.1862,26.9661A11.6619,11.6619,0,0,1,9.35,20.3252l11.2782-8.9A11.6623,11.6623,0,0,1,26.2994,9.022Z"/>
</svg>
