<svg id="f9f7a2f7-869e-42d0-8ff4-41c611d9c3eb" data-name="Layer 1" xmlns="http://www.w3.org/2000/svg" width="100" height="100">
  <defs>
    <style>
      .b0f0a50e-a9f8-4335-a0e1-ebc872fd8602 {
        fill: #6c6e7f;
      }

      .ac0f787c-48c5-490a-89da-f1827798d941 {
        fill: #585965;
      }

      .b6ce3fdb-214d-42c7-87e9-b2a166c7fbcd {
        fill: #42424d;
      }
    </style>
  </defs>
  <title>astr</title>
  <path class="b0f0a50e-a9f8-4335-a0e1-ebc872fd8602" d="M98.1764,57.8287,95.419,64.1105a16.27,16.27,0,0,1-11.6619,9.4034L53.9745,79.5533a16.13,16.13,0,0,1-2.4176.3039L30.6211,80.9089a16.253,16.253,0,0,1-8.09-1.6968L10.3292,73.1112a16.266,16.266,0,0,1-8.9058-16.23L1.7555,53.68a16.2306,16.2306,0,0,0-.3-5.21l-.0179-.0834a16.2723,16.2723,0,0,1,1.0606-10.24l1.1581-2.556A16.269,16.269,0,0,1,9.4147,28.79l10.3846-6.9628a16.2644,16.2644,0,0,1,10.0485-2.7266l15.7711.9593a16.2772,16.2772,0,0,1,7.7066,2.4881l9.3906,5.9393q.531.3348,1.0837.6272a16.206,16.206,0,0,0,3.4449,1.3479l6.2317,1.6519,3.4423.9118,7.0179,1.86a16.2678,16.2678,0,0,1,10.114,7.9349l3.78,6.9282A9.1745,9.1745,0,0,1,98.1764,57.8287Z"/>
  <path class="ac0f787c-48c5-490a-89da-f1827798d941" d="M73.4764,32.1143,63.4446,29.97,44.153,25.8466a25.646,25.646,0,0,0-16.0071,1.7455l-8.52,3.8873A25.651,25.651,0,0,0,6.733,44.6214l-5.31,12.26L1.7555,53.68a16.2306,16.2306,0,0,0-.3-5.21l-.0179-.0834a16.2723,16.2723,0,0,1,1.0606-10.24l1.1581-2.556A16.269,16.269,0,0,1,9.4147,28.79l10.3846-6.9628a16.2644,16.2644,0,0,1,10.0485-2.7266l15.7711.9593a16.2772,16.2772,0,0,1,7.7066,2.4881l9.3906,5.9393q.531.3348,1.0837.6272a16.206,16.206,0,0,0,3.4449,1.3479Z"/>
  <path class="ac0f787c-48c5-490a-89da-f1827798d941" d="M98.1764,57.8287,95.419,64.1105a16.27,16.27,0,0,1-11.6619,9.4034L53.9745,79.5533a16.13,16.13,0,0,1-2.4176.3039L30.6211,80.9089a16.253,16.253,0,0,1-8.09-1.6968L10.3292,73.1112l34.6112.2565a20.576,20.576,0,0,0,4.35-.4335l30.0161-6.2664a20.5484,20.5484,0,0,0,12.743-8.49l4.1028-5.983a4.8336,4.8336,0,0,0,.2565-5.0492L97.83,49.7489A9.1745,9.1745,0,0,1,98.1764,57.8287Z"/>
  <path class="b6ce3fdb-214d-42c7-87e9-b2a166c7fbcd" d="M29.5322,28.0394a9.59,9.59,0,0,1-16.6547,9.5127c-1.6717-2.9266.702-7.4284,5.3014-10.0554S27.8606,25.1127,29.5322,28.0394Z"/>
  <path class="b6ce3fdb-214d-42c7-87e9-b2a166c7fbcd" d="M54.8457,71.2843a9.59,9.59,0,0,1,18.7716-3.9369c.6918,3.2987-2.95,6.8537-8.1339,7.9409S55.5375,74.583,54.8457,71.2843Z"/>
  <path class="b6ce3fdb-214d-42c7-87e9-b2a166c7fbcd" d="M23.6294,72.5915a6.9092,6.9092,0,0,1,13.8161.2512c-.0441,2.4279-3.1729,4.3394-6.9884,4.27S23.5853,75.0194,23.6294,72.5915Z"/>
  <circle class="b6ce3fdb-214d-42c7-87e9-b2a166c7fbcd" cx="69.9594" cy="42.3867" r="8.3922"/>
  <polygon class="b6ce3fdb-214d-42c7-87e9-b2a166c7fbcd" points="30.405 71.98 15.232 59.725 31.188 70.943 30.405 71.98"/>
  <polygon class="b6ce3fdb-214d-42c7-87e9-b2a166c7fbcd" points="31.178 71.988 30.415 70.935 43.56 61.413 64.197 62.246 64.144 63.545 43.957 62.73 31.178 71.988"/>
  <polygon class="b6ce3fdb-214d-42c7-87e9-b2a166c7fbcd" points="63.552 63.096 59.497 50.569 69.534 41.895 70.384 42.878 60.999 50.989 64.789 62.696 63.552 63.096"/>
  <polygon class="b6ce3fdb-214d-42c7-87e9-b2a166c7fbcd" points="59.983 51.372 41.357 43.057 30.553 44.625 21.094 34.474 22.045 33.588 31.04 43.241 41.543 41.716 60.513 50.185 59.983 51.372"/>
</svg>
